<mxfile host="app.diagrams.net" modified="2020-12-25T03:39:25.260Z" agent="5.0 (X11)" etag="_ujymrMnqi1RutPcTHFK" version="14.1.2" type="github">
  <diagram id="VfqWdmrUvwHAs4061OCg" name="Page-1">
    <mxGraphModel dx="1099" dy="638" grid="1" gridSize="10" guides="1" tooltips="1" connect="1" arrows="1" fold="1" page="1" pageScale="1" pageWidth="850" pageHeight="1100" math="0" shadow="0">
      <root>
        <mxCell id="0" />
        <mxCell id="1" parent="0" />
        <mxCell id="EDQNq00aGLGoHW4VI6uu-1" value="&lt;b&gt;&lt;font style=&quot;font-size: 20px&quot;&gt;Start&lt;/font&gt;&lt;/b&gt;" style="rounded=1;whiteSpace=wrap;html=1;" vertex="1" parent="1">
          <mxGeometry x="365" y="30" width="120" height="60" as="geometry" />
        </mxCell>
      </root>
    </mxGraphModel>
  </diagram>
</mxfile>
